#!OML:ASF I:\Actors\actors\Patient Classification 2\Patient 1\Session 1\actor1.ASF
:FULLY-SPECIFIED
:DEGREES
382
root -0.745908 18.2227 5.38915 0.61241 -4.30138 -5.6942
lowerback 8.39889 2.08468 1.60549
upperback 1.99863 2.94469 1.2931
thorax -2.62171 1.45643 0.125453
lowerneck -7.12003 -3.24278 -7.60538
upperneck 27.4031 -4.65324 5.28101
head 10.178 -2.3511 2.6755
rclavicle 2.83268e-015 5.1684e-015
rhumerus -43.0049 28.05 -103.847
rradius 105.378
rwrist -49.8013
rhand -13.6869 -53.6118
rfingers 7.12502
rthumb 12.431 -83.2221
lclavicle 2.83268e-015 5.1684e-015
lhumerus -22.4893 -38.2886 99.2554
lradius 94.2024
lwrist 31.6522
lhand -10.2573 -3.79114
lfingers 7.12502
lthumb 15.7359 25.5891
rfemur 0 0 0
rtibia 0
rfoot 0 0
rtoes 0
lfemur 16.8082 -4.95431 -12.0329
ltibia -19.6686
lfoot -2.58153 22.6271
ltoes -7.31778
383
root -0.750516 18.2255 5.38821 0.751982 -4.43988 -5.67849
lowerback 8.25889 2.05841 1.42308
upperback 2.05809 2.89142 1.35166
thorax -2.49517 1.43213 0.30005
lowerneck -6.54676 -3.14566 -7.402
upperneck 26.1781 -4.5727 5.38014
head 9.61204 -2.28815 2.67512
rclavicle -1.44119e-015 -9.54166e-015
rhumerus -42.7021 28.7814 -102.713
rradius 106.093
rwrist -52.5792
rhand -14.3574 -54.642
rfingers 7.12502
rthumb 11.7845 -84.2905
lclavicle -1.44119e-015 -9.54166e-015
lhumerus -23.5041 -37.6156 99.26
lradius 95.1871
lwrist 31.7115
lhand -9.68751 -3.65958
lfingers 7.12502
lthumb 16.2845 25.6766
rfemur 0 0 0
rtibia 0
rfoot 0 0
rtoes 0
lfemur 16.6398 -4.62007 -11.9873
ltibia -19.587
lfoot -2.52037 22.4496
ltoes -7.72014
384
root -0.752099 18.2257 5.37781 0.753664 -4.55531 -5.69805
lowerback 8.40835 2.01348 1.3285
upperback 2.13746 2.8268 1.40928
thorax -2.50372 1.40036 0.414911
lowerneck -5.7256 -3.00262 -7.19135
upperneck 24.6262 -4.44215 5.54434
head 8.89634 -2.20046 2.70034
rclavicle -3.8266e-015 -1.11319e-014
rhumerus -42.3766 29.7502 -101.254
rradius 107.01
rwrist -54.5373
rhand -15.3077 -55.497
rfingers 7.12502
rthumb 10.868 -85.1958
lclavicle -3.8266e-015 -1.11319e-014
lhumerus -24.7322 -37.0589 99.2146
lradius 96.3073
lwrist 31.55
lhand -9.52325 -4.1394
lfingers 7.12502
lthumb 16.4427 25.1838
rfemur 0 0 0
rtibia 0
rfoot 0 0
rtoes 0
lfemur 16.5927 -4.48573 -11.9498
ltibia -19.5167
lfoot -2.51699 22.4267
ltoes -7.84383
385
root -0.752902 18.2267 5.36979 0.755252 -4.64318 -5.70195
lowerback 8.5224 1.90825 1.21179
upperback 2.22544 2.67803 1.43313
thorax -2.48257 1.32694 0.517913
lowerneck -4.69915 -2.80368 -6.89837
upperneck 22.8737 -4.25733 5.78194
head 8.09003 -2.081 2.74081
rclavicle 1.88348e-014 2.3059e-014
rhumerus -41.8789 30.9777 -99.3832
rradius 107.831
rwrist -54.5259
rhand -14.809 -56.2457
rfingers 7.12502
rthumb 11.3489 -85.9186
lclavicle 1.88348e-014 2.3059e-014
lhumerus -26.1909 -36.4349 99.007
lradius 97.5748
lwrist 31.1284
lhand -9.10222 -4.98832
lfingers 7.12502
lthumb 16.848 24.3008
rfemur 0 0 0
rtibia 0
rfoot 0 0
rtoes 0
lfemur 16.5773 -4.47737 -11.9452
ltibia -19.4921
lfoot -2.5421 22.5037
ltoes -7.54467
386
root -0.750981 18.2299 5.37101 0.859033 -4.67993 -5.70287
lowerback 8.38933 1.72363 1.1679
upperback 2.30379 2.42325 1.38651
thorax -2.3272 1.20122 0.526849
lowerneck -3.50283 -2.53754 -6.42735
upperneck 20.9776 -3.98828 6.02237
head 7.21877 -1.91694 2.75724
rclavicle -1.89839e-014 5.56597e-015
rhumerus -41.1736 32.44 -97.0026
rradius 108.908
rwrist -54.5794
rhand -13.8081 -56.826
rfingers 7.12502
rthumb 12.3142 -86.4434
lclavicle -1.89839e-014 5.56597e-015
lhumerus -27.8766 -35.7011 98.6425
lradius 98.8458
lwrist 30.4429
lhand -8.22763 -5.95698
lfingers 7.12502
lthumb 17.6898 23.2583
rfemur 0 0 0
rtibia 0
rfoot 0 0
rtoes 0
lfemur 16.4745 -4.42415 -11.9363
ltibia -19.4814
lfoot -2.54484 22.506
ltoes -7.37056
